<?xml version="1.0" encoding="UTF-8" standalone="no"?>
<svg
   xmlns:dc="http://purl.org/dc/elements/1.1/"
   xmlns:cc="http://creativecommons.org/ns#"
   xmlns:rdf="http://www.w3.org/1999/02/22-rdf-syntax-ns#"
   xmlns:svg="http://www.w3.org/2000/svg"
   xmlns="http://www.w3.org/2000/svg"
   xmlns:sodipodi="http://sodipodi.sourceforge.net/DTD/sodipodi-0.dtd"
   xmlns:inkscape="http://www.inkscape.org/namespaces/inkscape"
   width="201.60001pt"
   height="192.5pt"
   viewBox="0 0 201.60001 192.5"
   version="1.1"
   id="svg2"
   inkscape:version="0.91 r13725"
   sodipodi:docname="MF.svg">
  <metadata
     id="metadata68">
    <rdf:RDF>
      <cc:Work
         rdf:about="">
        <dc:format>image/svg+xml</dc:format>
        <dc:type
           rdf:resource="http://purl.org/dc/dcmitype/StillImage" />
        <dc:title></dc:title>
      </cc:Work>
    </rdf:RDF>
  </metadata>
  <sodipodi:namedview
     pagecolor="#ffffff"
     bordercolor="#666666"
     borderopacity="1"
     objecttolerance="10"
     gridtolerance="10"
     guidetolerance="10"
     inkscape:pageopacity="0"
     inkscape:pageshadow="2"
     inkscape:window-width="1680"
     inkscape:window-height="987"
     id="namedview66"
     showgrid="false"
     inkscape:zoom="2.5368505"
     inkscape:cx="129.69293"
     inkscape:cy="90.806143"
     inkscape:window-x="-8"
     inkscape:window-y="-8"
     inkscape:window-maximized="1"
     inkscape:current-layer="svg2" />
  <defs
     id="defs4">
    <clipPath
       id="clip1">
      <path
         d="m 0,842 78.675781,0 0,-75.43359 -78.675781,0 z"
         id="path7"
         inkscape:connector-curvature="0" />
    </clipPath>
  </defs>
  <g
     id="surface86"
     transform="matrix(2.4882651,0,0,2.4882651,2.9958406,-1905.0237)">
    <g
       clip-path="url(#clip1)"
       id="g10"
       style="clip-rule:nonzero">
      <path
         style="fill:#e31433;fill-opacity:1;fill-rule:nonzero;stroke:none"
         d="m 38.753906,801.27344 0,9.58593 11.074219,0 0,-11.07421 -5.539062,0 c -2.015625,0 -3.90625,0.54296 -5.535157,1.48828"
         id="path12"
         inkscape:connector-curvature="0" />
      <path
         style="fill:#e31433;fill-opacity:1;fill-rule:nonzero;stroke:none"
         d="m 38.753906,788.71484 0,0.69532 c 1.769532,-0.45313 3.625,-0.69532 5.535157,-0.69532 l 5.539062,0 c 0,-6.11718 4.957031,-11.07422 11.074219,-11.07422 l 0,-11.07421 c -12.234375,0 -22.148438,9.91796 -22.148438,22.14843"
         id="path14"
         inkscape:connector-curvature="0" />
      <path
         style="fill:#cac7ca;fill-opacity:1;fill-rule:nonzero;stroke:none"
         d="m 11.074219,788.71484 -11.074219,0 0,22.14453 11.074219,0 0,-11.07421 c 6.113281,0 11.070312,4.95703 11.070312,11.07421 0,-5.61718 2.089844,-10.74218 5.535157,-14.64453 -4.054688,-4.59765 -9.992188,-7.5 -16.605469,-7.5"
         id="path16"
         inkscape:connector-curvature="0" />
      <path
         style="fill:#aeabab;fill-opacity:1;fill-rule:nonzero;stroke:none"
         d="m 27.679688,796.21484 c 3.449218,3.90235 5.539062,9.02735 5.539062,14.64453 0,-4.09765 2.226563,-7.67187 5.535156,-9.58593 l 0,-11.86328 c -4.351562,1.12109 -8.1875,3.53515 -11.074218,6.80468"
         id="path18"
         inkscape:connector-curvature="0" />
      <path
         style="fill:#aeabab;fill-opacity:1;fill-rule:nonzero;stroke:none"
         d="m 49.828125,799.78516 5.535156,0 0,-11.07032 -5.535156,0 0,11.07032"
         id="path20"
         inkscape:connector-curvature="0" />
      <path
         style="fill:#b3111c;fill-opacity:1;fill-rule:nonzero;stroke:none"
         d="m 38.753906,789.41016 0,11.86328 c 1.628907,-0.94532 3.519532,-1.48828 5.535157,-1.48828 l 5.539062,0 0,-11.07032 -5.539062,0 c -1.910157,0 -3.765625,0.24219 -5.535157,0.69532"
         id="path22"
         inkscape:connector-curvature="0" />
      <path
         style="fill:#8f8c8c;fill-opacity:1;fill-rule:nonzero;stroke:none"
         d="m 22.144531,810.85937 11.074219,0 c 0,-5.61718 -2.089844,-10.74218 -5.539062,-14.64453 -3.445313,3.90235 -5.535157,9.02735 -5.535157,14.64453"
         id="path24"
         inkscape:connector-curvature="0" />
      <path
         style="fill:#e31433;fill-opacity:1;fill-rule:nonzero;stroke:none"
         d="m 5.824219,833.00391 0,0.99218 -4.640625,0 0,2.81641 4.070312,0 0,0.99219 -4.070312,0 0,4.05859 -1.17968775,0 0,-8.85937 5.82031275,0"
         id="path26"
         inkscape:connector-curvature="0" />
      <path
         style="fill:#e31433;fill-opacity:1;fill-rule:nonzero;stroke:none"
         d="m 8.195313,835.44922 0,6.41406 -1.054688,0 0,-6.41406 z m -1.054688,-1.45313 0,-0.99218 1.054688,0 0,0.99218 -1.054688,0"
         id="path28"
         inkscape:connector-curvature="0" />
      <path
         style="fill:#e31433;fill-opacity:1;fill-rule:nonzero;stroke:none"
         d="m 10.949219,835.44922 0,1.01562 0.02344,0 c 0.441407,-0.77734 1.132813,-1.16406 2.085938,-1.16406 0.421875,0 0.773437,0.0547 1.054687,0.17188 0.28125,0.11328 0.507813,0.27734 0.683594,0.48437 0.171875,0.20703 0.296875,0.45313 0.367188,0.73828 0.06641,0.28516 0.105468,0.60156 0.105468,0.94922 l 0,4.21875 -1.054687,0 0,-4.34375 c 0,-0.39453 -0.117188,-0.71094 -0.347656,-0.94141 -0.234375,-0.23437 -0.550782,-0.34765 -0.957032,-0.34765 -0.324218,0 -0.601562,0.0508 -0.835937,0.14844 -0.238281,0.0976 -0.433594,0.23828 -0.589844,0.42187 -0.160156,0.17969 -0.277344,0.39453 -0.355469,0.63672 -0.07813,0.24609 -0.117187,0.51172 -0.117187,0.80078 l 0,3.625 -1.054688,0 0,-6.41406 0.992188,0"
         id="path30"
         inkscape:connector-curvature="0" />
      <path
         style="fill:#e31433;fill-opacity:1;fill-rule:nonzero;stroke:none"
         d="m 20.429688,838.76953 c -0.214844,0.043 -0.441407,0.082 -0.675782,0.10938 -0.234375,0.0273 -0.472656,0.0625 -0.714843,0.10156 -0.238282,0.0352 -0.453125,0.0937 -0.644532,0.17578 -0.1875,0.0859 -0.34375,0.20312 -0.464843,0.35547 -0.121094,0.15234 -0.179688,0.36328 -0.179688,0.625 0,0.17578 0.03516,0.32031 0.105469,0.4414 0.07031,0.1211 0.160156,0.21875 0.273437,0.29297 0.109375,0.0742 0.242188,0.12891 0.398438,0.16016 0.152344,0.0352 0.308594,0.0508 0.464844,0.0508 0.347656,0 0.644531,-0.0469 0.894531,-0.14453 0.246094,-0.0937 0.449219,-0.21094 0.605469,-0.35938 0.15625,-0.14453 0.273437,-0.30078 0.347656,-0.47265 0.07422,-0.16797 0.113281,-0.32422 0.113281,-0.47656 l 0,-1.07813 c -0.132812,0.0977 -0.308594,0.17188 -0.523437,0.21875 z m 0.585937,3.09375 0,-0.84375 c -0.292969,0.34766 -0.628906,0.59766 -1.011719,0.75 -0.386718,0.15234 -0.800781,0.23047 -1.25,0.23047 -0.289062,0 -0.5625,-0.0312 -0.816406,-0.0937 -0.257812,-0.0625 -0.484375,-0.16406 -0.675781,-0.30859 -0.195313,-0.14454 -0.347656,-0.33204 -0.460938,-0.5586 -0.113281,-0.22656 -0.167968,-0.5039 -0.167968,-0.82812 0,-0.35938 0.0625,-0.66016 0.1875,-0.89063 0.125,-0.23437 0.285156,-0.42187 0.488281,-0.5664 0.203125,-0.14454 0.433594,-0.25391 0.695312,-0.32813 0.261719,-0.0742 0.527344,-0.13672 0.800782,-0.1875 0.289062,-0.0586 0.566406,-0.10156 0.824218,-0.12891 0.261719,-0.0273 0.492188,-0.0703 0.691407,-0.125 0.199218,-0.0547 0.355468,-0.1289 0.46875,-0.23437 0.117187,-0.10547 0.175781,-0.25391 0.175781,-0.45313 0,-0.23046 -0.04297,-0.41796 -0.128906,-0.55859 -0.08984,-0.14062 -0.199219,-0.25 -0.335938,-0.32031 -0.136719,-0.0742 -0.289062,-0.125 -0.460937,-0.15235 -0.167969,-0.0234 -0.335938,-0.0352 -0.503907,-0.0352 -0.445312,0 -0.816406,0.082 -1.113281,0.2539 -0.300781,0.16797 -0.460937,0.49219 -0.484375,0.96094 l -1.054687,0 c 0.01563,-0.39453 0.09766,-0.73437 0.246093,-1.0039 0.148438,-0.27344 0.347657,-0.4961 0.597657,-0.66407 0.246093,-0.17187 0.53125,-0.29297 0.855468,-0.36718 0.324219,-0.0742 0.660157,-0.10938 1.015625,-0.10938 0.292969,0 0.578125,0.0195 0.863282,0.0625 0.285156,0.0391 0.542968,0.125 0.777343,0.25 0.230469,0.12891 0.417969,0.3125 0.558594,0.54297 0.140625,0.23047 0.210938,0.53125 0.210938,0.90625 l 0,4.80078 -0.992188,0"
         id="path32"
         inkscape:connector-curvature="0" />
      <path
         style="fill:#e31433;fill-opacity:1;fill-rule:nonzero;stroke:none"
         d="m 24.761719,835.44922 0,1.01562 0.02344,0 c 0.4375,-0.77734 1.132813,-1.16406 2.085938,-1.16406 0.421875,0 0.773437,0.0547 1.054687,0.17188 0.28125,0.11328 0.507813,0.27734 0.683594,0.48437 0.171875,0.20703 0.296875,0.45313 0.363281,0.73828 0.07031,0.28516 0.109375,0.60156 0.109375,0.94922 l 0,4.21875 -1.054687,0 0,-4.34375 c 0,-0.39453 -0.117188,-0.71094 -0.351563,-0.94141 -0.230468,-0.23437 -0.546875,-0.34765 -0.953125,-0.34765 -0.324218,0 -0.601562,0.0508 -0.835937,0.14844 -0.238281,0.0976 -0.433594,0.23828 -0.59375,0.42187 -0.15625,0.17969 -0.273438,0.39453 -0.351563,0.63672 -0.07813,0.24609 -0.117187,0.51172 -0.117187,0.80078 l 0,3.625 -1.054688,0 0,-6.41406 0.992188,0"
         id="path34"
         inkscape:connector-curvature="0" />
      <path
         style="fill:#e31433;fill-opacity:1;fill-rule:nonzero;stroke:none"
         d="m 31.597656,840.42969 c 0.101563,0.16406 0.230469,0.28906 0.390625,0.38281 0.164063,0.0977 0.34375,0.16797 0.546875,0.20703 0.203125,0.043 0.414063,0.0625 0.628907,0.0625 0.164062,0 0.339843,-0.0117 0.519531,-0.0352 0.183594,-0.0273 0.351562,-0.0703 0.503906,-0.14062 0.152344,-0.0625 0.277344,-0.16016 0.378906,-0.28906 0.09766,-0.12891 0.148438,-0.29297 0.148438,-0.49219 0,-0.26953 -0.105469,-0.48047 -0.3125,-0.61719 -0.203125,-0.14453 -0.464844,-0.25781 -0.773438,-0.34375 -0.3125,-0.0859 -0.648437,-0.16406 -1.011718,-0.23437 -0.363282,-0.0703 -0.703125,-0.17188 -1.011719,-0.29688 -0.308594,-0.1289 -0.570313,-0.30859 -0.773438,-0.53906 -0.210937,-0.23438 -0.3125,-0.55469 -0.3125,-0.96875 0,-0.32422 0.07422,-0.60156 0.21875,-0.83203 0.144532,-0.23047 0.328125,-0.42188 0.558594,-0.56641 0.226563,-0.14453 0.484375,-0.25 0.769531,-0.32031 0.285157,-0.0742 0.566407,-0.10547 0.847657,-0.10547 0.363281,0 0.699218,0.0312 1.003906,0.0937 0.308594,0.0586 0.578125,0.16797 0.816406,0.32031 0.234375,0.15235 0.421875,0.35938 0.5625,0.6211 0.140625,0.25781 0.222656,0.58203 0.25,0.97265 l -1.054687,0 c -0.01953,-0.20703 -0.07031,-0.3789 -0.164063,-0.51562 -0.08984,-0.13672 -0.207031,-0.2461 -0.347656,-0.32813 -0.140625,-0.082 -0.292969,-0.14062 -0.464844,-0.17968 -0.167969,-0.0352 -0.339844,-0.0547 -0.515625,-0.0547 -0.15625,0 -0.316406,0.0117 -0.476562,0.0352 -0.160157,0.0273 -0.308594,0.0703 -0.441407,0.12891 -0.132812,0.0625 -0.238281,0.14844 -0.320312,0.25 -0.08594,0.10547 -0.125,0.23828 -0.125,0.40625 0,0.17969 0.0625,0.33203 0.191406,0.44922 0.128906,0.12109 0.292969,0.21875 0.492188,0.30078 0.199218,0.0781 0.421875,0.14453 0.667968,0.19922 0.25,0.0508 0.496094,0.10547 0.746094,0.16797 0.265625,0.0547 0.523438,0.125 0.773438,0.20703 0.253906,0.082 0.476562,0.19531 0.671875,0.33203 0.195312,0.13672 0.351562,0.30469 0.472656,0.51172 0.117187,0.20703 0.179687,0.46484 0.179687,0.76953 0,0.39063 -0.08203,0.71094 -0.242187,0.96875 -0.164063,0.25781 -0.371094,0.46484 -0.632813,0.62109 -0.261718,0.15625 -0.554687,0.26563 -0.882812,0.32813 -0.328125,0.0625 -0.652344,0.0937 -0.972656,0.0937 -0.355469,0 -0.695313,-0.0391 -1.019532,-0.10938 -0.320312,-0.0781 -0.605468,-0.19921 -0.855468,-0.36718 -0.246094,-0.17188 -0.445313,-0.39453 -0.59375,-0.67188 -0.152344,-0.27734 -0.234375,-0.61328 -0.25,-1.01172 l 1.054687,0 c 0.0078,0.23438 0.0625,0.42969 0.160156,0.58985"
         id="path36"
         inkscape:connector-curvature="0" />
      <path
         style="fill:#e31433;fill-opacity:1;fill-rule:nonzero;stroke:none"
         d="m 41.46875,833 -1.121094,1.56641 -1.042968,0 L 40.421875,833 Z m -3.328125,6.69922 c 0.101563,0.30078 0.246094,0.55078 0.429688,0.75781 0.179687,0.19922 0.394531,0.35547 0.636718,0.46094 0.246094,0.10937 0.503907,0.16406 0.773438,0.16406 0.277344,0 0.535156,-0.0547 0.777344,-0.16406 0.246093,-0.10547 0.457031,-0.26172 0.640625,-0.46094 0.183593,-0.20703 0.324218,-0.45703 0.429687,-0.75781 0.101563,-0.30469 0.152344,-0.64844 0.152344,-1.03516 0,-0.39062 -0.05078,-0.73828 -0.152344,-1.03906 -0.105469,-0.30078 -0.246094,-0.55469 -0.429687,-0.76172 -0.183594,-0.20703 -0.394532,-0.36328 -0.640625,-0.47266 -0.242188,-0.10937 -0.5,-0.16015 -0.777344,-0.16015 -0.269531,0 -0.527344,0.0508 -0.773438,0.16015 -0.242187,0.10938 -0.457031,0.26563 -0.636718,0.47266 -0.183594,0.20703 -0.328125,0.46094 -0.429688,0.76172 -0.105469,0.30078 -0.15625,0.64844 -0.15625,1.03906 0,0.38672 0.05078,0.73047 0.15625,1.03516 z m -1.074219,-2.35938 c 0.132813,-0.41015 0.332032,-0.76562 0.59375,-1.0664 0.265625,-0.30469 0.59375,-0.54297 0.984375,-0.71485 0.386719,-0.17187 0.832032,-0.25781 1.335938,-0.25781 0.515625,0 0.964844,0.0859 1.351562,0.25781 0.382813,0.17188 0.707032,0.41016 0.972657,0.71485 0.265625,0.30078 0.464843,0.65625 0.59375,1.0664 0.132812,0.41016 0.199218,0.85157 0.199218,1.32422 0,0.46875 -0.06641,0.91016 -0.199218,1.3125 -0.128907,0.40625 -0.328125,0.76172 -0.59375,1.0625 -0.265625,0.30078 -0.589844,0.53906 -0.972657,0.70703 C 40.945313,841.91406 40.496094,842 39.980469,842 c -0.503906,0 -0.949219,-0.0859 -1.335938,-0.25391 -0.390625,-0.16797 -0.71875,-0.40625 -0.984375,-0.70703 -0.261718,-0.30078 -0.460937,-0.65625 -0.59375,-1.0625 -0.132812,-0.40234 -0.199218,-0.84375 -0.199218,-1.3125 0,-0.47265 0.06641,-0.91406 0.199218,-1.32422"
         id="path38"
         inkscape:connector-curvature="0" />
      <path
         style="fill:#e31433;fill-opacity:1;fill-rule:nonzero;stroke:none"
         d="m 49.558594,841.86328 -1.300781,-5.10156 -0.02344,0 -1.289062,5.10156 -1.144532,0 -2.0625,-6.41406 1.167969,0 1.453125,5.25 0.02734,0 1.289062,-5.25 1.152344,0 1.339844,5.25 0.02734,0 1.4375,-5.25 1.09375,0 -2.050782,6.41406 -1.117187,0"
         id="path40"
         inkscape:connector-curvature="0" />
      <path
         style="fill:#cac7ca;fill-opacity:1;fill-rule:nonzero;stroke:none"
         d="m 2.75,819.71484 2.074219,6.09375 0.023437,0 1.960938,-6.09375 2.742187,0 0,8.86328 -1.824218,0 0,-6.28125 -0.027344,0 -2.167969,6.28125 -1.503906,0 -2.171875,-6.21875 -0.023438,0 0,6.21875 -1.8242185,0 0,-8.86328 2.7421875,0"
         id="path42"
         inkscape:connector-curvature="0" />
      <path
         style="fill:#cac7ca;fill-opacity:1;fill-rule:nonzero;stroke:none"
         d="m 13.199219,822.16016 0,6.41796 -1.761719,0 0,-6.41796 z m -1.761719,-0.99219 0,-1.45313 1.761719,0 0,1.45313 -1.761719,0"
         id="path44"
         inkscape:connector-curvature="0" />
      <path
         style="fill:#cac7ca;fill-opacity:1;fill-rule:nonzero;stroke:none"
         d="m 16.574219,822.16016 0,0.89453 0.03516,0 c 0.226563,-0.375 0.515625,-0.64453 0.871094,-0.81641 0.355469,-0.16797 0.71875,-0.25391 1.09375,-0.25391 0.46875,0 0.855469,0.0664 1.15625,0.19532 0.304687,0.125 0.542969,0.30468 0.714844,0.53515 0.175781,0.22657 0.296875,0.50391 0.367187,0.82813 0.07031,0.32812 0.105469,0.6875 0.105469,1.08594 l 0,3.94921 -1.761719,0 0,-3.625 c 0,-0.53125 -0.08203,-0.92578 -0.25,-1.18359 -0.164062,-0.26172 -0.457031,-0.39062 -0.878906,-0.39062 -0.480469,0 -0.828125,0.14062 -1.042969,0.42578 -0.214844,0.28515 -0.324219,0.7539 -0.324219,1.41015 l 0,3.36328 -1.761718,0 0,-6.41796 1.675781,0"
         id="path46"
         inkscape:connector-curvature="0" />
      <path
         style="fill:#cac7ca;fill-opacity:1;fill-rule:nonzero;stroke:none"
         d="m 24.378906,822.16016 0,6.41796 -1.761718,0 0,-6.41796 z m -1.761718,-0.99219 0,-1.45313 1.761718,0 0,1.45313 -1.761718,0"
         id="path48"
         inkscape:connector-curvature="0" />
      <path
         style="fill:#cac7ca;fill-opacity:1;fill-rule:nonzero;stroke:none"
         d="m 27.5625,826.98047 c 0.07813,0.13672 0.179688,0.25 0.304688,0.33594 0.125,0.0859 0.265625,0.15234 0.425781,0.1914 0.164062,0.043 0.332031,0.0625 0.503906,0.0625 0.125,0 0.253906,-0.0156 0.390625,-0.043 0.136719,-0.0312 0.261719,-0.0742 0.375,-0.13672 0.109375,-0.0625 0.203125,-0.14453 0.277344,-0.24609 0.07422,-0.10547 0.113281,-0.23437 0.113281,-0.39062 0,-0.26563 -0.175781,-0.46485 -0.527344,-0.59766 -0.351562,-0.13281 -0.84375,-0.26563 -1.472656,-0.39844 -0.253906,-0.0547 -0.503906,-0.125 -0.75,-0.20312 -0.242187,-0.0781 -0.460937,-0.1836 -0.652344,-0.3125 -0.191406,-0.125 -0.34375,-0.28516 -0.457031,-0.48047 -0.117187,-0.19531 -0.175781,-0.4336 -0.175781,-0.71485 0,-0.41406 0.08203,-0.7539 0.242187,-1.01562 0.164063,-0.26563 0.375,-0.47656 0.640625,-0.62891 0.265625,-0.15234 0.5625,-0.26172 0.894532,-0.32031 0.328125,-0.0625 0.667968,-0.0977 1.015625,-0.0977 0.347656,0 0.683593,0.0352 1.011718,0.10157 0.324219,0.0664 0.617188,0.17968 0.875,0.33203 0.253907,0.16015 0.46875,0.36719 0.636719,0.6289 0.171875,0.26172 0.273438,0.58985 0.304688,0.98829 l -1.675782,0 c -0.02344,-0.33985 -0.152343,-0.57032 -0.382812,-0.69141 -0.230469,-0.11719 -0.503906,-0.17969 -0.820313,-0.17969 -0.09766,0 -0.207031,0.008 -0.320312,0.0195 -0.117188,0.0117 -0.222656,0.0391 -0.316406,0.082 -0.09766,0.0391 -0.175782,0.10157 -0.242188,0.17969 -0.06641,0.0781 -0.101562,0.1836 -0.101562,0.31641 0,0.15625 0.05859,0.28515 0.175781,0.38281 0.113281,0.10156 0.265625,0.18359 0.453125,0.24219 0.183594,0.0625 0.398437,0.12109 0.636719,0.16797 0.242187,0.0508 0.484375,0.10156 0.734375,0.16406 0.253906,0.0547 0.503906,0.125 0.75,0.20703 0.242187,0.0859 0.460937,0.19531 0.652343,0.33203 0.191407,0.13672 0.34375,0.30469 0.457032,0.50781 0.117187,0.20313 0.175781,0.45313 0.175781,0.75 0,0.42188 -0.08594,0.77344 -0.253906,1.0625 -0.171875,0.28516 -0.390625,0.51563 -0.664063,0.6875 -0.273437,0.17579 -0.585937,0.29688 -0.9375,0.36719 -0.351562,0.0703 -0.710937,0.10547 -1.074219,0.10547 -0.371093,0 -0.738281,-0.0391 -1.089843,-0.11328 -0.355469,-0.0742 -0.675782,-0.19922 -0.953125,-0.37109 -0.273438,-0.17188 -0.503907,-0.40625 -0.679688,-0.6875 -0.179687,-0.28516 -0.277344,-0.64454 -0.292969,-1.07422 l 1.675782,0 c 0,0.1875 0.03906,0.35156 0.117187,0.48828"
         id="path50"
         inkscape:connector-curvature="0" />
      <path
         style="fill:#cac7ca;fill-opacity:1;fill-rule:nonzero;stroke:none"
         d="m 36.578125,822.16016 0,1.17968 -1.289062,0 0,3.00391 c 0,0.64844 0.285156,0.86719 0.875,0.86719 0.144531,0 0.414062,0 0.414062,0 l 0,1.36718 c 0,0 -0.605469,0 -0.957031,0 -1.378906,0 -2.09375,-0.80078 -2.09375,-1.95312 l 0,-3.28516 -1.070313,0 0,-1.17968 1.070313,0 0,-1.92579 1.761719,0 0,1.92579 1.289062,0"
         id="path52"
         inkscape:connector-curvature="0" />
      <path
         style="fill:#cac7ca;fill-opacity:1;fill-rule:nonzero;stroke:none"
         d="m 60.804688,822.16016 0,1.17968 -1.289063,0 0,3.00391 c 0,0.64844 0.28125,0.86719 0.875,0.86719 0.144531,0 0.414063,0 0.414063,0 l 0,1.36718 c 0,0 -0.605469,0 -0.960938,0 -1.375,0 -2.089844,-0.80078 -2.089844,-1.95312 l 0,-3.28516 -1.070312,0 0,-1.17968 1.070312,0 0,-1.92579 1.761719,0 0,1.92579 1.289063,0"
         id="path54"
         inkscape:connector-curvature="0" />
      <path
         style="fill:#cac7ca;fill-opacity:1;fill-rule:nonzero;stroke:none"
         d="m 41.652344,823.66016 c -0.210938,-0.23047 -0.53125,-0.34375 -0.960938,-0.34375 -0.28125,0 -0.515625,0.043 -0.703125,0.14062 -0.183593,0.0937 -0.332031,0.21094 -0.445312,0.35156 -0.113281,0.14453 -0.191406,0.29297 -0.238281,0.44922 -0.04297,0.15625 -0.07031,0.29688 -0.07813,0.42188 l 2.867187,0 c -0.08203,-0.44922 -0.230469,-0.78516 -0.441406,-1.01953 z m -1.992188,3.375 c 0.265625,0.25781 0.644532,0.38671 1.140625,0.38671 0.355469,0 0.664063,-0.0898 0.917969,-0.26562 0.257813,-0.17969 0.417969,-0.36719 0.472656,-0.56641 l 1.550782,0 c -0.246094,0.76953 -0.628907,1.32032 -1.140625,1.65235 -0.511719,0.33203 -1.132813,0.49609 -1.863282,0.49609 -0.503906,0 -0.957031,-0.082 -1.363281,-0.24219 -0.40625,-0.16015 -0.75,-0.39062 -1.03125,-0.6914 -0.28125,-0.29688 -0.496094,-0.65235 -0.648437,-1.06641 -0.15625,-0.41016 -0.230469,-0.86719 -0.230469,-1.36328 0,-0.48047 0.07813,-0.92578 0.234375,-1.33984 0.15625,-0.41407 0.382812,-0.77344 0.671875,-1.07422 0.289062,-0.30469 0.632812,-0.54297 1.035156,-0.71485 0.402344,-0.17187 0.847656,-0.26172 1.332031,-0.26172 0.546875,0 1.023438,0.10938 1.429688,0.31641 0.40625,0.21484 0.738281,0.49609 0.996094,0.85156 0.261718,0.35547 0.449218,0.76172 0.566406,1.21485 0.117187,0.45703 0.160156,0.93359 0.125,1.42968 l -4.628906,0 c 0.02344,0.57032 0.167968,0.98438 0.433593,1.23829"
         id="path56"
         inkscape:connector-curvature="0" />
      <path
         style="fill:#cac7ca;fill-opacity:1;fill-rule:nonzero;stroke:none"
         d="m 51.785156,826.98047 c 0.07813,0.13672 0.183594,0.25 0.304688,0.33594 0.125,0.0859 0.265625,0.15234 0.429687,0.1914 0.160157,0.043 0.328125,0.0625 0.503907,0.0625 0.121093,0 0.253906,-0.0156 0.386718,-0.043 0.136719,-0.0312 0.261719,-0.0742 0.375,-0.13672 0.113282,-0.0625 0.203125,-0.14453 0.28125,-0.24609 0.07422,-0.10547 0.109375,-0.23437 0.109375,-0.39062 0,-0.26563 -0.175781,-0.46485 -0.527343,-0.59766 -0.351563,-0.13281 -0.84375,-0.26563 -1.472657,-0.39844 -0.253906,-0.0547 -0.503906,-0.125 -0.75,-0.20312 -0.242187,-0.0781 -0.460937,-0.1836 -0.648437,-0.3125 -0.191406,-0.125 -0.347656,-0.28516 -0.460938,-0.48047 -0.117187,-0.19531 -0.171875,-0.4336 -0.171875,-0.71485 0,-0.41406 0.07813,-0.7539 0.242188,-1.01562 0.160156,-0.26563 0.371094,-0.47656 0.636719,-0.62891 0.265625,-0.15234 0.5625,-0.26172 0.894531,-0.32031 0.328125,-0.0625 0.671875,-0.0977 1.015625,-0.0977 0.347656,0 0.683594,0.0352 1.011719,0.10157 0.328125,0.0664 0.621093,0.17968 0.875,0.33203 0.257812,0.16015 0.46875,0.36719 0.640625,0.6289 0.167968,0.26172 0.269531,0.58985 0.304687,0.98829 l -1.675781,0 c -0.02344,-0.33985 -0.15625,-0.57032 -0.386719,-0.69141 -0.230469,-0.11719 -0.503906,-0.17969 -0.816406,-0.17969 -0.101563,0 -0.210938,0.008 -0.324219,0.0195 -0.117187,0.0117 -0.222656,0.0391 -0.316406,0.082 -0.09375,0.0391 -0.175781,0.10157 -0.242188,0.17969 -0.06641,0.0781 -0.09766,0.1836 -0.09766,0.31641 0,0.15625 0.05859,0.28515 0.171875,0.38281 0.117188,0.10156 0.265625,0.18359 0.453125,0.24219 0.1875,0.0625 0.398438,0.12109 0.640625,0.16797 0.238281,0.0508 0.484375,0.10156 0.730469,0.16406 0.257812,0.0547 0.507812,0.125 0.75,0.20703 0.246094,0.0859 0.460937,0.19531 0.652344,0.33203 0.191406,0.13672 0.34375,0.30469 0.460937,0.50781 0.113281,0.20313 0.171875,0.45313 0.171875,0.75 0,0.42188 -0.08594,0.77344 -0.253906,1.0625 -0.167969,0.28516 -0.390625,0.51563 -0.664063,0.6875 -0.273437,0.17579 -0.585937,0.29688 -0.9375,0.36719 -0.351562,0.0703 -0.710937,0.10547 -1.070312,0.10547 -0.375,0 -0.738281,-0.0391 -1.09375,-0.11328 -0.355469,-0.0742 -0.671875,-0.19922 -0.949219,-0.37109 -0.277344,-0.17188 -0.503906,-0.40625 -0.683594,-0.6875 -0.179687,-0.28516 -0.273437,-0.64454 -0.292968,-1.07422 l 1.675781,0 c 0,0.1875 0.03906,0.35156 0.117187,0.48828"
         id="path58"
         inkscape:connector-curvature="0" />
      <path
         style="fill:#cac7ca;fill-opacity:1;fill-rule:nonzero;stroke:none"
         d="m 67.785156,828.57812 -1.140625,-4.30859 -0.02734,0 -1.089844,4.30859 -1.824219,0 -2.035156,-6.41796 1.863281,0 1.175781,4.35546 0.02344,0 1.070312,-4.35546 1.710938,0 1.09375,4.34375 0.02344,0 1.179688,-4.34375 1.8125,0 -2.023438,6.41796 -1.8125,0"
         id="path60"
         inkscape:connector-curvature="0" />
      <path
         style="fill:#cac7ca;fill-opacity:1;fill-rule:nonzero;stroke:none"
         d="m 73.875,826.125 c 0.05078,0.24219 0.136719,0.46484 0.253906,0.65625 0.121094,0.19531 0.277344,0.35156 0.476563,0.46484 0.199219,0.11719 0.449219,0.17578 0.746094,0.17578 0.296875,0 0.546875,-0.0586 0.75,-0.17578 0.203125,-0.11328 0.367187,-0.26953 0.484375,-0.46484 0.121093,-0.19141 0.203125,-0.41406 0.253906,-0.65625 0.05078,-0.24219 0.07422,-0.49219 0.07422,-0.75 0,-0.25781 -0.02344,-0.51172 -0.07422,-0.75781 -0.05078,-0.25 -0.132813,-0.46485 -0.253906,-0.65625 -0.117188,-0.19141 -0.28125,-0.34766 -0.484375,-0.46875 -0.203125,-0.11719 -0.453125,-0.17578 -0.75,-0.17578 -0.296875,0 -0.546875,0.0586 -0.746094,0.17578 -0.199219,0.12109 -0.355469,0.27734 -0.476563,0.46875 -0.117187,0.1914 -0.203125,0.40625 -0.253906,0.65625 -0.05078,0.24609 -0.07422,0.5 -0.07422,0.75781 0,0.25781 0.02344,0.50781 0.07422,0.75 z m -1.601562,-2.14844 c 0.15625,-0.41797 0.382812,-0.76953 0.671875,-1.0664 0.289062,-0.29297 0.636718,-0.51954 1.039062,-0.6836 0.40625,-0.16015 0.863281,-0.24219 1.367188,-0.24219 0.503906,0 0.960937,0.082 1.371093,0.24219 0.410157,0.16406 0.757813,0.39063 1.050782,0.6836 0.285156,0.29687 0.511718,0.64843 0.667968,1.0664 0.15625,0.42188 0.234375,0.88281 0.234375,1.39844 0,0.51172 -0.07813,0.97656 -0.234375,1.39062 -0.15625,0.41016 -0.382812,0.76563 -0.667968,1.0586 -0.292969,0.29297 -0.640625,0.51953 -1.050782,0.67969 -0.410156,0.15234 -0.867187,0.23437 -1.371093,0.23437 -0.503907,0 -0.960938,-0.082 -1.367188,-0.23437 -0.402344,-0.16016 -0.75,-0.38672 -1.039062,-0.67969 -0.289063,-0.29297 -0.515625,-0.64844 -0.671875,-1.0586 -0.15625,-0.41406 -0.234375,-0.8789 -0.234375,-1.39062 0,-0.51563 0.07813,-0.97656 0.234375,-1.39844"
         id="path62"
         inkscape:connector-curvature="0" />
      <path
         style="fill:#cac7ca;fill-opacity:1;fill-rule:nonzero;stroke:none"
         d="m 46.855469,822.16016 0,0.78515 0.02734,0 c 0.464843,-0.65234 1.472656,-0.91797 2.433593,-0.89844 l 0,1.44922 c -1.585937,-0.0312 -2.371093,0.76563 -2.371093,1.9375 l 0,3.14453 -1.765625,0 0,-6.41796 1.675781,0"
         id="path64"
         inkscape:connector-curvature="0" />
    </g>
  </g>
</svg>
